M48
INCH,TZ
T1C0.0157
T2C0.0315
T3C0.0394
T4C0.0400
T5C0.1200
T6C0.1260
%
G90
G05
T1
X55750Y-36642
X57000Y-36356
X58250Y-36071
X59500Y-35785
X60750Y-35500
T2
X56000Y-34750
X56000Y-37750
X57250Y-34750
X57250Y-37750
X59750Y-34750
X59750Y-37750
X62250Y-34750
X62250Y-37750
X49000Y-34750
X49000Y-37750
X54000Y-34750
X54000Y-37750
X50250Y-34750
X50250Y-37750
X58500Y-34750
X58500Y-37750
X51500Y-34750
X51500Y-37750
X47750Y-34750
X47750Y-37750
X52750Y-34750
X52750Y-37750
X61000Y-34750
X61000Y-37750
T3
X59500Y-40250
X60045Y-41368
X60591Y-40250
X61136Y-41368
X61681Y-40250
X62226Y-41368
X62772Y-40250
X63317Y-41368
X63862Y-40250
X46142Y-40250
X46687Y-41368
X47232Y-40250
X47778Y-41368
X48323Y-40250
X48868Y-41368
X49413Y-40250
X49959Y-41368
X50504Y-40250
T4
X53000Y-29750
X53000Y-30750
X54000Y-29750
X54000Y-30750
X55000Y-29750
X55000Y-30750
X56000Y-29750
X56000Y-30750
X57000Y-29750
X57000Y-30750
T5
X69750Y-42750
X66500Y-29750
X43750Y-29750
X40500Y-29750
X40500Y-42750
X69750Y-29750
T6
X56760Y-40809
X66602Y-40809
X43402Y-40809
X53244Y-40809
T0
M30
