%TF.GenerationSoftware,KiCad,Pcbnew,(5.1.8)-1*%
%TF.CreationDate,2021-01-10T23:31:28+01:00*%
%TF.ProjectId,CPC464 Splitter,43504334-3634-4205-9370-6c6974746572,rev?*%
%TF.SameCoordinates,Original*%
%TF.FileFunction,Soldermask,Top*%
%TF.FilePolarity,Negative*%
%FSLAX46Y46*%
G04 Gerber Fmt 4.6, Leading zero omitted, Abs format (unit mm)*
G04 Created by KiCad (PCBNEW (5.1.8)-1) date 2021-01-10 23:31:28*
%MOMM*%
%LPD*%
G01*
G04 APERTURE LIST*
%ADD10R,1.600000X1.600000*%
%ADD11C,1.600000*%
%ADD12C,4.000000*%
%ADD13R,1.727200X1.727200*%
%ADD14O,1.727200X1.727200*%
%ADD15C,5.100000*%
%ADD16O,1.600000X1.600000*%
G04 APERTURE END LIST*
D10*
%TO.C,J1*%
X117200000Y-102235000D03*
D11*
X119970000Y-102235000D03*
X122740000Y-102235000D03*
X125510000Y-102235000D03*
X128280000Y-102235000D03*
X118585000Y-105075000D03*
X121355000Y-105075000D03*
X124125000Y-105075000D03*
X126895000Y-105075000D03*
D12*
X110240000Y-103655000D03*
X135240000Y-103655000D03*
%TD*%
%TO.C,J2*%
X169170000Y-103655000D03*
X144170000Y-103655000D03*
D11*
X160825000Y-105075000D03*
X158055000Y-105075000D03*
X155285000Y-105075000D03*
X152515000Y-105075000D03*
X162210000Y-102235000D03*
X159440000Y-102235000D03*
X156670000Y-102235000D03*
X153900000Y-102235000D03*
D10*
X151130000Y-102235000D03*
%TD*%
D13*
%TO.C,J3*%
X134620000Y-78105000D03*
D14*
X137160000Y-78105000D03*
X139700000Y-78105000D03*
X142240000Y-78105000D03*
X144780000Y-78105000D03*
X134620000Y-75565000D03*
X137160000Y-75565000D03*
X139700000Y-75565000D03*
X142240000Y-75565000D03*
X144780000Y-75565000D03*
%TD*%
D15*
%TO.C,M1*%
X102870000Y-108585000D03*
%TD*%
%TO.C,M2*%
X177165000Y-75565000D03*
%TD*%
%TO.C,M3*%
X102870000Y-75565000D03*
%TD*%
%TO.C,M4*%
X177165000Y-108585000D03*
%TD*%
D16*
%TO.C,D1*%
X137160000Y-88265000D03*
D10*
X137160000Y-95885000D03*
%TD*%
%TO.C,D2*%
X133985000Y-95885000D03*
D16*
X133985000Y-88265000D03*
%TD*%
%TO.C,D3*%
X130810000Y-88265000D03*
D10*
X130810000Y-95885000D03*
%TD*%
D16*
%TO.C,D4*%
X127635000Y-88265000D03*
D10*
X127635000Y-95885000D03*
%TD*%
%TO.C,D5*%
X124460000Y-95885000D03*
D16*
X124460000Y-88265000D03*
%TD*%
%TO.C,D6*%
X121285000Y-88265000D03*
D10*
X121285000Y-95885000D03*
%TD*%
D16*
%TO.C,D7*%
X158115000Y-88265000D03*
D10*
X158115000Y-95885000D03*
%TD*%
%TO.C,D8*%
X154940000Y-95885000D03*
D16*
X154940000Y-88265000D03*
%TD*%
D10*
%TO.C,D9*%
X151765000Y-95885000D03*
D16*
X151765000Y-88265000D03*
%TD*%
D10*
%TO.C,D10*%
X148590000Y-95885000D03*
D16*
X148590000Y-88265000D03*
%TD*%
D10*
%TO.C,D11*%
X145415000Y-95885000D03*
D16*
X145415000Y-88265000D03*
%TD*%
%TO.C,D12*%
X142240000Y-88265000D03*
D10*
X142240000Y-95885000D03*
%TD*%
D15*
%TO.C,M5*%
X168910000Y-75565000D03*
%TD*%
%TO.C,M6*%
X111125000Y-75565000D03*
%TD*%
M02*
